<?xml version="1.0" encoding="UTF-8" standalone="no"?>
<svg
   xmlns:dc="http://purl.org/dc/elements/1.1/"
   xmlns:cc="http://creativecommons.org/ns#"
   xmlns:rdf="http://www.w3.org/1999/02/22-rdf-syntax-ns#"
   xmlns:svg="http://www.w3.org/2000/svg"
   xmlns="http://www.w3.org/2000/svg"
   version="1.1"
   viewBox="0 0 20.557865 15.398556">
  <g
     transform="translate(-7.1079739,-5.8185788)"
     id="layer1">
    <g
       id="g4"
       transform="matrix(0.26458,0,0,0.26458,1.1813819,0.52697876)">
      <path
         style="fill:#fb4a39"
         id="path2"
         d="M 22.4,21 H 99.9 V 20 H 22.4 Z m 0,7.2 h 26.8 c 2.8,0 3.9,-0.7 5,-1.3 1,-0.6 1.9,-1.1 4.4,-1.1 h 4.9 c 2.5,0 3.4,0.6 4.4,1.1 1.1,0.7 2.2,1.3 5,1.3 h 26.8 v -1 H 73 c -2.5,0 -3.4,-0.6 -4.4,-1.1 -1.1,-0.7 -2.2,-1.3 -5,-1.3 h -4.9 c -2.8,0 -3.9,0.7 -5,1.3 -1,0.6 -1.9,1.1 -4.4,1.1 H 22.4 Z m 0,7.1 h 17 c 1.7,0 2.5,-0.8 3.2,-1.4 0.7,-0.7 1.1,-1.1 2.1,-1.1 1,0 1.5,0.4 2.1,1.1 0.7,0.6 1.5,1.4 3.2,1.4 h 22.2 c 1.7,0 2.5,-0.8 3.2,-1.4 0.7,-0.7 1.2,-1.1 2.1,-1.1 1,0 1.5,0.4 2.1,1.1 0.7,0.6 1.5,1.4 3.2,1.4 h 17 v -1 h -17 c -1.3,0 -1.9,-0.5 -2.5,-1.1 -0.7,-0.6 -1.4,-1.3 -2.8,-1.3 -1.4,0 -2.1,0.7 -2.8,1.3 -0.7,0.7 -1.2,1.1 -2.5,1.1 H 50 c -1.3,0 -1.9,-0.5 -2.5,-1.1 -0.7,-0.6 -1.4,-1.3 -2.8,-1.3 -1.4,0 -2.1,0.7 -2.8,1.3 -0.7,0.7 -1.2,1.1 -2.5,1.1 h -17 z m 0,7.2 h 12.7 c 1.7,0 2.5,-0.8 3.2,-1.4 0.7,-0.7 1.1,-1.1 2.1,-1.1 1,0 1.5,0.4 2.1,1.1 0.7,0.6 1.5,1.4 3.2,1.4 h 30.7 c 1.7,0 2.5,-0.8 3.2,-1.4 0.7,-0.7 1.1,-1.1 2.1,-1.1 1,0 1.5,0.4 2.1,1.1 0.7,0.6 1.5,1.4 3.2,1.4 h 12.7 v -1 H 87.1 c -1.3,0 -1.9,-0.5 -2.5,-1.1 -0.7,-0.6 -1.4,-1.3 -2.8,-1.3 -1.4,0 -2.1,0.7 -2.8,1.3 -0.7,0.7 -1.2,1.1 -2.5,1.1 H 45.8 c -1.3,0 -1.9,-0.5 -2.5,-1.1 -0.7,-0.6 -1.4,-1.3 -2.8,-1.3 -1.4,0 -2.1,0.7 -2.8,1.3 -0.7,0.7 -1.2,1.1 -2.5,1.1 H 22.4 Z m 0,7.1 H 34 c 1.7,0 2.5,-0.8 3.2,-1.4 0.7,-0.7 1.1,-1.1 2.1,-1.1 1,0 1.5,0.4 2.1,1.1 0.7,0.6 1.5,1.4 3.2,1.4 h 33 c 1.7,0 2.5,-0.8 3.2,-1.4 0.7,-0.7 1.1,-1.1 2.1,-1.1 1,0 1.5,0.4 2.1,1.1 0.7,0.6 1.5,1.4 3.2,1.4 h 11.6 v -1 H 88.3 c -1.3,0 -1.9,-0.5 -2.5,-1.1 -0.7,-0.6 -1.4,-1.3 -2.8,-1.3 -1.4,0 -2.1,0.7 -2.8,1.3 -0.7,0.7 -1.2,1.1 -2.5,1.1 h -33 c -1.3,0 -1.9,-0.5 -2.5,-1.1 -0.7,-0.6 -1.4,-1.3 -2.8,-1.3 -1.4,0 -2.1,0.7 -2.8,1.3 -0.7,0.7 -1.2,1.1 -2.5,1.1 H 22.4 Z m 0,14.3 h 16.9 c 1.3,0 2.1,-0.7 2.7,-1.4 0.7,-0.6 1.1,-1.1 2,-1.1 0.9,0 1.3,0.5 2,1.1 0.7,0.7 1.5,1.4 2.9,1.4 h 24.7 c 1.4,0 2.2,-0.7 2.9,-1.4 0.6,-0.6 1.1,-1.1 2,-1.1 0.8,0 1.3,0.5 2,1.1 0.7,0.7 1.4,1.4 2.8,1.4 H 100 v -1 H 83.1 c -1,0 -1.5,-0.5 -2.1,-1.1 -0.7,-0.6 -1.4,-1.3 -2.6,-1.3 -1.3,0 -2.1,0.7 -2.7,1.3 -0.6,0.7 -1.1,1.1 -2.1,1.1 H 48.8 c -1,0 -1.5,-0.5 -2.2,-1.1 -0.6,-0.6 -1.4,-1.3 -2.6,-1.3 -1.2,0 -2.1,0.7 -2.6,1.4 -0.7,0.6 -1.1,1.1 -2.1,1.1 H 22.4 Z m 0,7.1 h 26.8 c 2.8,0 3.9,-0.7 5,-1.3 1,-0.6 1.9,-1.1 4.4,-1.1 h 4.9 c 2.5,0 3.4,0.6 4.4,1.1 1.1,0.7 2.2,1.3 5,1.3 H 99.7 V 70 H 73 c -2.5,0 -3.4,-0.6 -4.4,-1.1 -1.1,-0.7 -2.2,-1.3 -5,-1.3 h -4.9 c -2.8,0 -3.9,0.7 -5,1.3 -1,0.6 -1.9,1.1 -4.4,1.1 H 22.4 Z m 0,7.2 h 77.5 v -1 H 22.4 Z m 0,-21.4 h 12.9 c 1.4,0 2.1,-0.8 2.8,-1.5 0.6,-0.7 1.1,-1.1 2,-1.1 0.9,0 1.3,0.5 2,1.1 0.7,0.7 1.5,1.5 2.9,1.5 h 32.7 c 1.3,0 2.1,-0.8 2.8,-1.5 0.7,-0.7 1.1,-1.1 2,-1.1 0.9,0 1.4,0.5 2,1.1 0.7,0.7 1.4,1.5 2.7,1.5 h 12.9 v -1 H 87 c -0.9,0 -1.4,-0.5 -2,-1.1 -0.7,-0.7 -1.4,-1.5 -2.7,-1.5 -1.2,0 -2.1,0.8 -2.7,1.5 -0.7,0.7 -1.1,1.1 -2.1,1.1 H 44.9 c -1,0 -1.5,-0.5 -2.1,-1.2 -0.7,-0.6 -1.4,-1.4 -2.7,-1.4 -1.3,0 -2.1,0.8 -2.7,1.5 -0.6,0.7 -1.1,1.1 -2.1,1.1 H 22.4 Z"
         class="st0" />
    </g>
  </g>
</svg>
